<svg width="68" height="52" viewBox="0 0 68 52" fill="none" xmlns="http://www.w3.org/2000/svg">
<path d="M61.1765 1.52941C57.7812 0.458824 54.0494 0 50.4706 0C44.5059 0 38.0824 1.22353 33.6471 4.58824C29.2118 1.22353 22.7882 0 16.8235 0C10.8588 0 4.43529 1.22353 0 4.58824V49.4C0 50.1647 0.764706 50.9294 1.52941 50.9294C1.83529 50.9294 1.98824 50.7765 2.29412 50.7765C6.42353 48.7882 12.3882 47.4118 16.8235 47.4118C22.7882 47.4118 29.2118 48.6353 33.6471 52C37.7765 49.4 45.2706 47.4118 50.4706 47.4118C55.5176 47.4118 60.7176 48.3294 65 50.6235C65.3059 50.7765 65.4588 50.7765 65.7647 50.7765C66.5294 50.7765 67.2941 50.0118 67.2941 49.2471V4.58824C65.4588 3.21176 63.4706 2.29412 61.1765 1.52941ZM61.1765 42.8235C57.8118 41.7529 54.1412 41.2941 50.4706 41.2941C45.2706 41.2941 37.7765 43.2824 33.6471 45.8824V10.7059C37.7765 8.10588 45.2706 6.11765 50.4706 6.11765C54.1412 6.11765 57.8118 6.57647 61.1765 7.64706V42.8235Z" fill="#D9D9D9"/>
</svg>
