<svg width="61" height="62" viewBox="0 0 61 62" fill="none" xmlns="http://www.w3.org/2000/svg">
<path d="M53.2102 34.0354C53.3394 33.0667 53.404 32.0656 53.404 31C53.404 29.9667 53.3394 28.9333 53.1779 27.9646L59.7331 22.8625C60.3144 22.4104 60.4758 21.5385 60.1206 20.8927L53.9206 10.1719C53.5331 9.46146 52.7258 9.23542 52.0154 9.46146L44.2977 12.5615C42.6831 11.3344 40.9717 10.301 39.0665 9.52604L37.904 1.32396C37.7748 0.548958 37.129 0 36.354 0H23.954C23.179 0 22.5654 0.548958 22.4362 1.32396L21.2738 9.52604C19.3685 10.301 17.6248 11.3667 16.0425 12.5615L8.32479 9.46146C7.61437 9.20312 6.80708 9.46146 6.41958 10.1719L0.251876 20.8927C-0.135624 21.5708 -0.00645758 22.4104 0.639376 22.8625L7.19458 27.9646C7.03313 28.9333 6.90396 29.999 6.90396 31C6.90396 32.001 6.96854 33.0667 7.13 34.0354L0.574792 39.1375C-0.00645753 39.5896 -0.167915 40.4615 0.187293 41.1073L6.38729 51.8281C6.77479 52.5385 7.58208 52.7646 8.2925 52.5385L16.0102 49.4385C17.6248 50.6656 19.3363 51.699 21.2415 52.474L22.404 60.676C22.5654 61.451 23.179 62 23.954 62H36.354C37.129 62 37.7748 61.451 37.8717 60.676L39.0342 52.474C40.9394 51.699 42.6831 50.6656 44.2654 49.4385L51.9831 52.5385C52.6935 52.7969 53.5008 52.5385 53.8883 51.8281L60.0883 41.1073C60.4758 40.3969 60.3144 39.5896 59.7008 39.1375L53.2102 34.0354ZM30.154 42.625C23.7602 42.625 18.529 37.3937 18.529 31C18.529 24.6063 23.7602 19.375 30.154 19.375C36.5477 19.375 41.779 24.6063 41.779 31C41.779 37.3937 36.5477 42.625 30.154 42.625Z" fill="#383838"/>
</svg>
