<svg width="67" height="67" viewBox="0 0 67 67" fill="none" xmlns="http://www.w3.org/2000/svg">
<path d="M20 53.3333C16.3333 53.3333 13.3667 56.3333 13.3667 60C13.3667 63.6667 16.3333 66.6667 20 66.6667C23.6667 66.6667 26.6667 63.6667 26.6667 60C26.6667 56.3333 23.6667 53.3333 20 53.3333ZM0 0V6.66667H6.66667L18.6667 31.9667L14.1667 40.1333C13.6333 41.0667 13.3333 42.1667 13.3333 43.3333C13.3333 47 16.3333 50 20 50H60V43.3333H21.4C20.9333 43.3333 20.5667 42.9667 20.5667 42.5L20.6667 42.1L23.6667 36.6667H48.5C51 36.6667 53.2 35.3 54.3333 33.2333L66.2667 11.6C66.5333 11.1333 66.6667 10.5667 66.6667 10C66.6667 8.16667 65.1667 6.66667 63.3333 6.66667H14.0333L10.9 0H0ZM53.3333 53.3333C49.6667 53.3333 46.7 56.3333 46.7 60C46.7 63.6667 49.6667 66.6667 53.3333 66.6667C57 66.6667 60 63.6667 60 60C60 56.3333 57 53.3333 53.3333 53.3333Z" fill="#383838"/>
</svg>
